<svg width="800" height="400" viewBox="0 0 800 400" xmlns="http://www.w3.org/2000/svg"><defs><pattern id="satori_pattern_id_1" x="0" y="0" width="0.125" height="0.25" patternUnits="objectBoundingBox"><radialGradient id="satori_radial_id_1"><stop offset="0" stop-color="lightgray"></stop><stop offset="0.02" stop-color="lightgray"></stop><stop offset="0" stop-color="transparent"></stop><stop offset="1" stop-color="transparent"></stop></radialGradient><mask id="satori_mask_id_1"><rect x="0" y="0" width="100" height="100" fill="#fff"></rect></mask><rect x="0" y="0" width="100" height="100" fill="transparent"></rect><circle cx="75" cy="75" width="100" height="100" r="106.06601717798213" fill="url(#satori_radial_id_1)" mask="url(#satori_mask_id_1)"></circle></pattern><pattern id="satori_pattern_id_0" x="0" y="0" width="0.125" height="0.25" patternUnits="objectBoundingBox"><radialGradient id="satori_radial_id_0"><stop offset="0" stop-color="lightgray"></stop><stop offset="0.02" stop-color="lightgray"></stop><stop offset="0" stop-color="transparent"></stop><stop offset="1" stop-color="transparent"></stop></radialGradient><mask id="satori_mask_id_0"><rect x="0" y="0" width="100" height="100" fill="#fff"></rect></mask><rect x="0" y="0" width="100" height="100" fill="transparent"></rect><circle cx="25" cy="25" width="100" height="100" r="106.06601717798213" fill="url(#satori_radial_id_0)" mask="url(#satori_mask_id_0)"></circle></pattern></defs><mask id="satori_om-id"><rect x="0" y="0" width="800" height="400" fill="#fff"></rect></mask><rect x="0" y="0" width="800" height="400" fill="white"></rect><rect x="0" y="0" width="800" height="400" fill="url(#satori_pattern_id_1)"></rect><rect x="0" y="0" width="800" height="400" fill="url(#satori_pattern_id_0)"></rect><mask id="satori_om-id-0"><rect x="213" y="179" width="375" height="72" fill="#fff"></rect></mask><mask id="satori_om-id-0-0"><rect x="213" y="179" width="375" height="72" fill="#fff"></rect></mask><path fill="black" d="M225.8 228.5L225.8 228.5L215.5 228.5L215.5 199.5L225.9 199.5Q230.3 199.5 233.5 201.2Q236.7 202.9 238.4 206.2Q240.1 209.4 240.1 214.0L240.1 214.0Q240.1 218.5 238.4 221.8Q236.7 225.0 233.5 226.8Q230.3 228.5 225.8 228.5ZM221.7 204.7L221.7 223.3L225.6 223.3Q228.3 223.3 230.2 222.3Q232.0 221.3 233.0 219.3Q233.9 217.2 233.9 214.0L233.9 214.0Q233.9 210.7 233.0 208.7Q232.0 206.7 230.2 205.7Q228.3 204.7 225.6 204.7L225.6 204.7L221.7 204.7ZM258.4 206.7L264.8 206.7L257.2 228.5L250.4 228.5L242.8 206.7L249.2 206.7L253.7 222.3L253.9 222.3L258.4 206.7ZM274.0 228.5L267.9 228.5L267.9 206.7L274.0 206.7L274.0 228.5ZM271.0 203.9L271.0 203.9Q269.6 203.9 268.7 203.0Q267.7 202.1 267.7 200.8L267.7 200.8Q267.7 199.6 268.7 198.7Q269.6 197.8 271.0 197.8L271.0 197.8Q272.3 197.8 273.3 198.7Q274.3 199.6 274.3 200.8L274.3 200.8Q274.3 202.1 273.3 203.0Q272.3 203.9 271.0 203.9ZM284.9 215.9L284.9 215.9L284.9 228.5L278.8 228.5L278.8 206.7L284.6 206.7L284.6 210.6L284.8 210.6Q285.6 208.7 287.3 207.6Q289.0 206.4 291.4 206.4L291.4 206.4Q293.7 206.4 295.4 207.4Q297.1 208.4 298 210.3Q298.9 212.1 298.9 214.7L298.9 214.7L298.9 228.5L292.9 228.5L292.9 215.7Q292.9 213.7 291.9 212.6Q290.8 211.5 289.0 211.5L289.0 211.5Q287.8 211.5 286.9 212.0Q285.9 212.5 285.4 213.5Q284.9 214.5 284.9 215.9ZM321.8 212.9L321.8 212.9L316.3 213.3Q316.2 212.6 315.7 212.0Q315.2 211.4 314.5 211.1Q313.7 210.7 312.7 210.7L312.7 210.7Q311.3 210.7 310.3 211.3Q309.3 211.9 309.3 212.9L309.3 212.9Q309.3 213.7 309.9 214.2Q310.6 214.7 312.1 215.1L312.1 215.1L316.0 215.9Q319.2 216.5 320.8 218.0Q322.3 219.4 322.3 221.8L322.3 221.8Q322.3 223.9 321.1 225.5Q319.8 227.2 317.7 228.1Q315.5 229.0 312.6 229.0L312.6 229.0Q308.3 229.0 305.7 227.2Q303.2 225.3 302.7 222.2L302.7 222.2L308.7 221.9Q309.0 223.2 310.0 223.9Q311.0 224.6 312.6 224.6L312.6 224.6Q314.2 224.6 315.2 224.0Q316.2 223.4 316.2 222.4L316.2 222.4Q316.2 221.6 315.5 221.0Q314.8 220.5 313.4 220.2L313.4 220.2L309.6 219.5Q306.4 218.8 304.9 217.2Q303.3 215.7 303.3 213.2L303.3 213.2Q303.3 211.1 304.5 209.6Q305.6 208.1 307.7 207.3Q309.8 206.4 312.6 206.4L312.6 206.4Q316.7 206.4 319.1 208.2Q321.5 209.9 321.8 212.9Z M361.2 209.6L361.2 209.6L355.0 209.6Q354.8 208.4 354.3 207.5Q353.8 206.5 353.0 205.9Q352.1 205.2 351.1 204.8Q350.0 204.5 348.7 204.5L348.7 204.5Q346.5 204.5 344.8 205.6Q343.1 206.7 342.2 208.8Q341.3 211.0 341.3 214.0L341.3 214.0Q341.3 217.1 342.2 219.2Q343.1 221.3 344.8 222.4Q346.5 223.5 348.7 223.5L348.7 223.5Q349.9 223.5 351.0 223.2Q352.0 222.8 352.9 222.2Q353.7 221.6 354.2 220.7Q354.8 219.8 355.0 218.6L355.0 218.6L361.2 218.6Q361.0 220.6 360.0 222.5Q359.1 224.3 357.5 225.8Q355.8 227.2 353.6 228.1Q351.4 228.9 348.6 228.9L348.6 228.9Q344.7 228.9 341.6 227.2Q338.6 225.4 336.8 222.1Q335.0 218.7 335.0 214.0L335.0 214.0Q335.0 209.2 336.8 205.9Q338.6 202.6 341.7 200.8Q344.8 199.1 348.6 199.1L348.6 199.1Q351.1 199.1 353.3 199.8Q355.5 200.5 357.1 201.8Q358.8 203.2 359.9 205.1Q360.9 207.1 361.2 209.6ZM375.4 229.0L375.4 229.0Q372.1 229.0 369.7 227.6Q367.3 226.1 366.0 223.6Q364.6 221.1 364.6 217.7L364.6 217.7Q364.6 214.3 366.0 211.8Q367.3 209.3 369.7 207.9Q372.1 206.4 375.4 206.4L375.4 206.4Q378.7 206.4 381.1 207.9Q383.5 209.3 384.8 211.8Q386.1 214.3 386.1 217.7L386.1 217.7Q386.1 221.1 384.8 223.6Q383.5 226.1 381.1 227.6Q378.7 229.0 375.4 229.0ZM375.4 224.3L375.4 224.3Q376.9 224.3 377.9 223.4Q378.9 222.6 379.5 221.1Q380.0 219.6 380.0 217.7L380.0 217.7Q380.0 215.8 379.5 214.3Q378.9 212.8 377.9 211.9Q376.9 211.1 375.4 211.1L375.4 211.1Q373.9 211.1 372.9 211.9Q371.8 212.8 371.3 214.3Q370.8 215.8 370.8 217.7L370.8 217.7Q370.8 219.6 371.3 221.1Q371.8 222.6 372.9 223.4Q373.9 224.3 375.4 224.3ZM396.1 215.9L396.1 215.9L396.1 228.5L390.1 228.5L390.1 206.7L395.8 206.7L395.8 210.6L396.1 210.6Q396.8 208.7 398.5 207.6Q400.2 206.4 402.7 206.4L402.7 206.4Q404.9 206.4 406.6 207.4Q408.3 208.4 409.3 210.3Q410.2 212.1 410.2 214.7L410.2 214.7L410.2 228.5L404.1 228.5L404.1 215.7Q404.2 213.7 403.1 212.6Q402.1 211.5 400.3 211.5L400.3 211.5Q399.0 211.5 398.1 212.0Q397.2 212.5 396.7 213.5Q396.1 214.5 396.1 215.9ZM424.8 229.0L424.8 229.0Q421.5 229.0 419.0 227.5Q416.6 226.1 415.4 223.6Q414.1 221.0 414.1 217.7L414.1 217.7Q414.1 214.4 415.4 211.8Q416.7 209.3 419.1 207.9Q421.5 206.4 424.8 206.4L424.8 206.4Q427.6 206.4 429.8 207.5Q431.9 208.5 433.2 210.4Q434.4 212.3 434.5 214.8L434.5 214.8L428.8 214.8Q428.6 213.2 427.6 212.2Q426.5 211.2 424.9 211.2L424.9 211.2Q423.5 211.2 422.4 211.9Q421.4 212.7 420.8 214.1Q420.2 215.6 420.2 217.6L420.2 217.6Q420.2 219.7 420.8 221.2Q421.4 222.6 422.4 223.4Q423.5 224.2 424.9 224.2L424.9 224.2Q425.9 224.2 426.7 223.8Q427.6 223.3 428.1 222.5Q428.7 221.7 428.8 220.5L428.8 220.5L434.5 220.5Q434.4 223.0 433.2 224.9Q432.0 226.8 429.8 227.9Q427.7 229.0 424.8 229.0ZM448.4 229.0L448.4 229.0Q445.0 229.0 442.6 227.6Q440.2 226.2 438.9 223.7Q437.6 221.2 437.6 217.7L437.6 217.7Q437.6 214.4 438.9 211.8Q440.2 209.3 442.6 207.9Q444.9 206.4 448.1 206.4L448.1 206.4Q450.3 206.4 452.2 207.1Q454.0 207.8 455.4 209.2Q456.8 210.6 457.6 212.7Q458.4 214.7 458.4 217.5L458.4 217.5L458.4 219.2L440.0 219.2L440.0 215.4L452.7 215.4Q452.7 214.1 452.1 213.1Q451.6 212.1 450.6 211.5Q449.6 211.0 448.2 211.0L448.2 211.0Q446.9 211.0 445.8 211.6Q444.7 212.2 444.2 213.3Q443.6 214.3 443.5 215.6L443.5 215.6L443.5 219.2Q443.5 220.8 444.1 222.0Q444.7 223.2 445.9 223.8Q447.0 224.5 448.5 224.5L448.5 224.5Q449.5 224.5 450.3 224.2Q451.2 223.9 451.8 223.3Q452.4 222.7 452.7 221.9L452.7 221.9L458.3 222.3Q457.8 224.3 456.5 225.8Q455.2 227.3 453.1 228.1Q451.1 229.0 448.4 229.0ZM468.4 236.7L462.3 236.7L462.3 206.7L468.3 206.7L468.3 210.4L468.6 210.4Q469.0 209.5 469.7 208.6Q470.5 207.7 471.7 207.1Q473.0 206.4 474.8 206.4L474.8 206.4Q477.2 206.4 479.2 207.7Q481.2 208.9 482.4 211.4Q483.6 213.9 483.6 217.7L483.6 217.7Q483.6 221.3 482.5 223.8Q481.3 226.3 479.3 227.6Q477.3 228.9 474.8 228.9L474.8 228.9Q473.0 228.9 471.8 228.3Q470.6 227.7 469.8 226.8Q469.0 226.0 468.6 225.0L468.6 225.0L468.4 225.0L468.4 236.7ZM468.3 217.6L468.3 217.6Q468.3 219.6 468.8 221.0Q469.3 222.5 470.4 223.3Q471.4 224.1 472.9 224.1L472.9 224.1Q474.3 224.1 475.4 223.3Q476.4 222.4 476.9 221.0Q477.4 219.5 477.4 217.6L477.4 217.6Q477.4 215.7 476.9 214.3Q476.4 212.9 475.4 212.1Q474.3 211.3 472.9 211.3L472.9 211.3Q471.4 211.3 470.4 212.0Q469.3 212.8 468.8 214.3Q468.3 215.7 468.3 217.6ZM486.1 206.7L499.3 206.7L499.3 211.3L486.1 211.3L486.1 206.7ZM489.1 222.6L489.1 201.5L495.1 201.5L495.1 221.8Q495.1 222.7 495.4 223.1Q495.7 223.6 496.1 223.8Q496.6 224.0 497.2 224.0L497.2 224.0Q497.6 224.0 498.0 223.9Q498.5 223.8 498.7 223.8L498.7 223.8L499.6 228.3Q499.2 228.4 498.4 228.6Q497.5 228.8 496.4 228.8L496.4 228.8Q494.2 228.9 492.5 228.3Q490.9 227.6 490.0 226.2Q489.1 224.8 489.1 222.6L489.1 222.6ZM525.3 228.5L503.0 228.5L503.0 224.9L517.5 204.5L503.0 204.5L503.0 199.5L525.2 199.5L525.2 203.1L510.7 223.5L525.3 223.5L525.3 228.5ZM535.9 228.5L529.9 228.5L529.9 206.7L535.9 206.7L535.9 228.5ZM532.9 203.9L532.9 203.9Q531.6 203.9 530.6 203.0Q529.6 202.1 529.6 200.8L529.6 200.8Q529.6 199.6 530.6 198.7Q531.6 197.8 532.9 197.8L532.9 197.8Q534.3 197.8 535.2 198.7Q536.2 199.6 536.2 200.8L536.2 200.8Q536.2 202.1 535.2 203.0Q534.3 203.9 532.9 203.9ZM550.6 229.0L550.6 229.0Q547.3 229.0 544.9 227.6Q542.5 226.1 541.2 223.6Q539.9 221.1 539.9 217.7L539.9 217.7Q539.9 214.3 541.2 211.8Q542.5 209.3 544.9 207.9Q547.3 206.4 550.6 206.4L550.6 206.4Q553.9 206.4 556.3 207.9Q558.7 209.3 560.0 211.8Q561.3 214.3 561.3 217.7L561.3 217.7Q561.3 221.1 560.0 223.6Q558.7 226.1 556.3 227.6Q553.9 229.0 550.6 229.0ZM550.6 224.3L550.6 224.3Q552.1 224.3 553.1 223.4Q554.2 222.6 554.7 221.1Q555.2 219.6 555.2 217.7L555.2 217.7Q555.2 215.8 554.7 214.3Q554.2 212.8 553.1 211.9Q552.1 211.1 550.6 211.1L550.6 211.1Q549.1 211.1 548.1 211.9Q547.0 212.8 546.5 214.3Q546.0 215.8 546.0 217.7L546.0 217.7Q546.0 219.6 546.5 221.1Q547.0 222.6 548.1 223.4Q549.1 224.3 550.6 224.3ZM571.3 215.9L571.3 215.9L571.3 228.5L565.3 228.5L565.3 206.7L571.1 206.7L571.1 210.6L571.3 210.6Q572.0 208.7 573.7 207.6Q575.4 206.4 577.9 206.4L577.9 206.4Q580.1 206.4 581.8 207.4Q583.5 208.4 584.5 210.3Q585.4 212.1 585.4 214.7L585.4 214.7L585.4 228.5L579.3 228.5L579.3 215.7Q579.4 213.7 578.3 212.6Q577.3 211.5 575.5 211.5L575.5 211.5Q574.3 211.5 573.3 212.0Q572.4 212.5 571.9 213.5Q571.4 214.5 571.3 215.9Z "></path></svg>
